<svg xmlns="http://www.w3.org/2000/svg" viewBox="0 0 64 64">
  <!-- Badge background -->
  <rect width="64" height="64" rx="14" fill="#1a56db"/>

  <!-- Trophy cup body -->
  <path d="M20 14h24v18a12 12 0 01-24 0V14z" fill="#f59e0b"/>

  <!-- Left handle -->
  <path d="M20 20h-6a5 5 0 000 10h6" stroke="#f59e0b" stroke-width="4" stroke-linecap="round" fill="none"/>

  <!-- Right handle -->
  <path d="M44 20h6a5 5 0 010 10h-6" stroke="#f59e0b" stroke-width="4" stroke-linecap="round" fill="none"/>

  <!-- Stem -->
  <rect x="28" y="38" width="8" height="7" rx="1.5" fill="#f59e0b"/>

  <!-- Base -->
  <rect x="20" y="45" width="24" height="5.5" rx="2.5" fill="#f59e0b"/>

  <!-- Shine on cup -->
  <path d="M27 17.5c0-.83.67-1.5 1.5-1.5h7a1.5 1.5 0 010 3h-7c-.83 0-1.5-.67-1.5-1.5z" fill="rgba(255,255,255,0.3)"/>
</svg>
